HIERARCHY
ROOT Root
{
  OFFSET 6.91964 12.0689 36.1781
  CHANNELS 6 Xposition Yposition Zposition Zrotation Xrotation Yrotation
  JOINT Spine
  {
    OFFSET 5.3114 0 0
    CHANNELS 3 Zrotation Xrotation Yrotation
    JOINT Spine1
    {
      OFFSET 2.79004 0 0
      CHANNELS 3 Zrotation Xrotation Yrotation
      JOINT Neck
      {
        OFFSET 1.43377 0 0
        CHANNELS 3 Zrotation Xrotation Yrotation
        JOINT Head
        {
          OFFSET 1.86043 0 0
          CHANNELS 3 Zrotation Xrotation Yrotation
          End Site
          {
            OFFSET 0 0 0
          }
        }
      }
      JOINT LeftArm
      {
        OFFSET 0.0387506 0 2.55754
        CHANNELS 3 Zrotation Xrotation Yrotation
        JOINT LeftForeArm
        {
          OFFSET 4.24845 0 0
          CHANNELS 3 Zrotation Xrotation Yrotation
          JOINT LeftHand
          {
            OFFSET 4.01008 0 0
            CHANNELS 3 Zrotation Xrotation Yrotation
            End Site
            {
              OFFSET 0 0 0
            }
          }
        }
      }
      JOINT RightArm
      {
        OFFSET 0.0387506 0 -2.55754
        CHANNELS 3 Zrotation Xrotation Yrotation
        JOINT RightForeArm
        {
          OFFSET -4.24845 0 0
          CHANNELS 3 Zrotation Xrotation Yrotation
          JOINT RightHand
          {
            OFFSET -4.01009 0 0
            CHANNELS 3 Zrotation Xrotation Yrotation
            End Site
            {
              OFFSET 0 0 0
            }
          }
        }
      }
    }
  }
  JOINT LeftUpLeg
  {
    OFFSET -1.23318 0 2.05692
    CHANNELS 3 Zrotation Xrotation Yrotation
    JOINT LeftLeg
    {
      OFFSET 5.46397 0 0
      CHANNELS 3 Zrotation Xrotation Yrotation
      JOINT LeftFoot
      {
        OFFSET 4.68898 0 0
        CHANNELS 3 Zrotation Xrotation Yrotation
        End Site
        {
          OFFSET 0 0 0
        }
      }
    }
  }
  JOINT RightUpLeg
  {
    OFFSET -1.24454 0 -2.05007
    CHANNELS 3 Zrotation Xrotation Yrotation
    JOINT RightLeg
    {
      OFFSET -5.46397 0 0
      CHANNELS 3 Zrotation Xrotation Yrotation
      JOINT RightFoot
      {
        OFFSET -4.68901 0 0
        CHANNELS 3 Zrotation Xrotation Yrotation
        End Site
        {
          OFFSET 0 0 0
        }
      }
    }
  }
}
MOTION
Frames:	21
Frame Time:	0.0416667
8.05014 12.4373 -32.0677 -170.946 86.2893 -104.3 7.43627 3.33141 -11.0105 -5.70776 1.17875 -0.197244 -7.06432 0.886859 -3.29875 66.7776 5.09998 2.75487 8.21835 -17.9226 -164.309 30.3472 2.0374 17.5028 1.12704 12.6671 174.328 -161.795 -46.1466 -165.151 34.794 3.12283 19.9442 1.17505 13.1866 174.317 -14.0916 -28.4759 176.287 -34.5661 -1.25601 -1.30915 28.4103 -14.7396 -174.941 169.578 -8.34595 168.463 -32.1007 -0.959029 -1.29609 21.9404 -8.93762 -179.877 
8.08491 12.4451 -32.06 -173.402 86.3619 -101.96 7.92344 3.0718 -10.7678 -6.44324 1.12424 -0.321104 -6.86834 1.02465 -3.38004 66.8043 5.27692 2.57357 10.5967 -17.8258 -164.78 30.1788 2.00029 17.4092 1.18641 13.3078 174.313 -161.16 -45.6862 -165.074 34.4129 3.02201 19.7374 1.19162 13.3676 174.314 -13.7773 -28.6649 176.183 -34.422 -1.24968 -1.30606 28.1429 -15.6789 -174.559 169.474 -8.18884 168.614 -32.4778 -0.959418 -1.31178 21.5334 -8.43855 179.901 
8.11882 12.4503 -32.0565 -176.574 86.2531 -98.8966 7.89437 3.08716 -10.6072 -6.34823 1.12641 -0.361269 -6.9121 1.12136 -3.26646 66.8353 5.42711 2.45595 12.1435 -18.5267 -165.122 29.9638 1.95314 17.2896 1.26642 14.1646 174.293 -161.254 -45.1655 -165.156 34.2128 2.96964 19.6286 1.23295 13.7714 174.305 -13.8222 -29.0489 176.054 -34.2168 -1.24902 -1.30082 28.3904 -15.8272 -174.404 169.141 -7.86141 168.798 -32.932 -0.960138 -1.32975 21.1706 -7.94516 179.693 
8.15505 12.4552 -32.0555 -179.35 86.1804 -96.2114 7.76836 3.27077 -10.5468 -6.27647 1.15815 -0.0864677 -6.58256 1.05813 -3.28738 66.6217 5.16792 2.29102 13.047 -18.5765 -165.513 29.482 1.84963 17.0212 1.31966 14.7307 174.278 -161.141 -44.7358 -164.988 34.189 2.96343 19.6156 1.23616 13.7918 174.305 -13.8173 -29.6853 175.792 -34.0503 -1.2485 -1.29771 28.4813 -16.4983 -174.04 168.76 -7.62326 168.965 -33.5147 -0.969835 -1.3512 21.0167 -7.58764 179.567 
8.18977 12.4577 -32.0545 179.764 86.1842 -95.3919 7.80826 3.26099 -10.3299 -6.32763 1.16154 -0.248367 -6.45816 1.06629 -3.43759 66.471 5.21221 2.37559 13.7107 -18.8518 -165.467 29.0507 1.75861 16.7804 1.38935 15.4671 174.258 -161.444 -44.6967 -165.358 34.4379 3.02856 19.751 1.27477 14.1517 174.297 -13.8073 -30.1679 175.548 -33.8323 -1.24328 -1.2924 28.3993 -17.0204 -173.809 168.463 -7.44556 169.158 -33.9315 -0.960552 -1.36517 20.2472 -7.00881 179.29 
8.23187 12.4601 -32.055 -179.757 86.2059 -95.751 7.78248 3.3261 -10.3132 -6.15651 1.17906 -0.262119 -6.46116 1.0269 -3.4292 66.3348 5.07527 2.31386 13.8851 -19.6039 -165.307 28.86 1.7192 16.6738 1.4298 15.9263 174.245 -161.872 -45.1036 -165.451 34.8879 3.14782 19.9952 1.1721 13.1368 174.322 -13.8107 -30.0839 175.243 -33.4869 -1.23588 -1.28352 28.1939 -16.9267 -173.91 168.206 -7.14384 169.624 -34.6101 -0.96361 -1.38555 20.0055 -6.19909 179.024 
8.27145 12.4636 -32.0588 -179.214 86.25 -96.4055 7.65571 3.5176 -10.0793 -5.96777 1.21918 -0.156382 -6.40341 0.991835 -3.39175 66.2769 4.9614 2.24021 14.0712 -20.9398 -164.881 28.8789 1.72364 16.684 1.44809 16.0808 174.241 -162.245 -45.3323 -165.633 35.4054 3.2879 20.275 1.13613 12.7818 174.331 -13.7285 -30.151 175.201 -33.206 -1.22944 -1.27748 28.1609 -16.9177 -173.925 168.065 -7.16078 169.742 -34.9942 -0.969717 -1.39564 19.7882 -6.07948 178.965 
8.31744 12.4669 -32.0598 -173.647 86.2152 -101.951 7.34288 3.47033 -9.92025 -5.60407 1.1914 -0.105087 -6.41799 0.929053 -3.37795 66.3872 4.83759 2.23921 13.9946 -22.5608 -164.356 29.3592 1.82304 16.9529 1.41416 15.7282 174.251 -162.609 -45.6394 -165.903 36.1188 3.48463 20.6596 1.07948 12.1658 174.345 -13.8681 -29.9771 175.027 -32.9185 -1.2149 -1.27008 27.6288 -16.0466 -174.529 168 -7.23485 169.935 -35.3239 -0.990678 -1.40329 20.0963 -6.64561 179.175 
8.36526 12.4705 -32.0608 -169.752 86.2575 -105.768 7.13697 3.32119 -9.81925 -5.66512 1.13903 -0.0346495 -6.20344 0.8667 -3.60893 66.3105 4.72193 2.31694 13.5048 -23.3817 -164.038 30.3161 2.03053 17.4854 1.18093 13.2499 174.315 -162.68 -46.2774 -166.056 36.803 3.67857 21.0267 1.02501 11.573 174.358 -13.9655 -30.362 174.557 -32.6876 -1.20295 -1.26542 27.1989 -16.007 -174.687 168.04 -7.28933 170.224 -35.5662 -1.00128 -1.40818 20.1915 -6.8858 179.254 
8.4155 12.4741 -32.0671 -169.794 86.341 -105.828 6.86531 3.37571 -9.55496 -5.4606 1.14524 -0.0837658 -6.35841 0.83506 -3.54394 66.3143 4.58075 2.221 12.3428 -23.6905 -163.77 30.2975 2.02644 17.4752 1.21485 13.6146 174.307 -163.021 -46.4997 -166.326 37.6314 3.91936 21.4689 1.00616 11.363 174.363 -13.8273 -30.1452 174.492 -32.504 -1.19393 -1.26034 26.8166 -15.8819 -174.87 167.864 -7.34968 170.311 -35.9764 -1.00849 -1.41503 19.7476 -7.10963 179.263 
8.47095 12.4777 -32.0694 -168.328 86.4684 -107.107 6.69533 3.07596 -9.56728 -5.62504 1.063 -0.207812 -6.45424 0.863094 -3.44327 66.5416 4.48593 1.974 11.2155 -23.2898 -163.612 30.25 2.01596 17.4487 1.25961 14.0928 174.295 -163.289 -46.5207 -166.706 38.2504 4.10381 21.7977 0.982467 11.113 174.368 -13.6235 -30.0719 174.088 -31.9036 -1.18615 -1.24613 26.7471 -15.949 -174.827 167.487 -6.95694 170.859 -37.0817 -1.02658 -1.43604 19.6411 -6.55773 179.086 
8.52316 12.4865 -32.0723 -172.6 86.7518 -102.864 6.37914 3.03574 -9.42088 -5.62934 1.0465 -0.304719 -6.4875 0.905217 -3.30369 66.683 4.39512 1.69106 10.048 -23.0295 -163.41 30.1185 1.98704 17.3756 1.30934 14.6389 174.281 -163.548 -46.2069 -166.965 38.74 4.25253 22.0567 0.993829 11.2176 174.367 -13.0721 -29.57 174.124 -31.2268 -1.17321 -1.22997 26.4972 -16.0115 -174.855 166.786 -6.57338 171.204 -38.6938 -1.04473 -1.46852 19.0186 -5.60409 178.744 
8.57027 12.4629 -32.0843 174.766 87.136 -89.97 6.16849 2.95454 -9.7078 -5.58422 1.02014 -0.263567 -6.64371 1.01114 -3.10717 66.8475 4.03449 0.814901 8.84149 -22.243 -163.257 30.0026 1.96169 17.3112 1.37716 15.341 174.263 -163.713 -46.1779 -166.938 39.1175 4.36861 22.2557 0.989157 11.1666 174.368 -12.5497 -29.2783 173.688 -30.5105 -1.16696 -1.21294 26.5407 -16.3403 -174.642 165.546 -6.35362 171.913 -41.393 -1.05978 -1.52896 17.7869 -3.57702 178.094 
8.61785 12.5068 -32.0852 155.995 87.3758 -71.0048 6.00583 2.80388 -9.87457 -5.57416 0.980629 -0.376045 -6.65285 1.19032 -2.94848 66.5574 3.62912 -0.336917 8.44766 -22.3746 -162.636 30.6516 2.10607 17.6713 1.27397 14.2477 174.292 -163.874 -45.8551 -166.941 39.0853 4.35876 22.2388 1.01557 11.426 174.364 -10.9304 -29.7302 173.639 -28.1316 -1.1159 -1.15786 25.8187 -16.8538 -174.591 163.113 -6.25122 172.438 -46.2014 -1.12003 -1.65286 16.5342 -3.16142 177.899 
8.65466 12.5256 -32.0757 130.386 86.9504 -44.9689 5.73684 2.51577 -10.4051 -5.75633 0.891186 -0.204014 -6.71556 1.45824 -2.73999 66.108 2.48512 -2.89067 8.67283 -22.2626 -162.105 31.5762 2.31702 18.1834 1.11568 12.5473 174.332 -163.717 -45.153 -166.838 39.1935 4.39225 22.2958 1.04701 11.734 174.358 -9.42978 -30.0135 173.274 -25.8441 -1.07579 -1.11059 25.5998 -18.1711 -173.964 159.972 -6.39209 173.155 -51.5874 -1.16292 -1.8128 14.8924 -3.00455 177.755 
8.6836 12.5462 -32.0587 109.07 86.3557 -23.2514 5.77493 1.96467 -10.7709 -5.96537 0.744554 -0.278129 -6.84908 1.85126 -2.64367 65.9291 1.14502 -6.18456 9.0881 -21.6532 -161.283 31.5876 2.31998 18.1896 1.07558 12.1122 174.342 -163.304 -44.6838 -166.793 39.5001 4.48802 22.457 1.00783 11.338 174.366 -7.4846 -32.2278 172.661 -23.2687 -1.03159 -1.06893 26.1902 -20.1791 -172.683 157.058 -6.39584 173.728 -57.0371 -1.19617 -1.9923 14.2809 -2.62249 177.642 
8.70857 12.5563 -32.0213 95.7439 85.9528 -9.72851 5.62161 1.20127 -10.9377 -5.88004 0.524755 -0.280641 -7.02838 2.19836 -2.24504 65.4525 -0.658098 -10.1693 9.17926 -20.7535 -160.648 31.2628 2.24459 18.0102 1.13327 12.7382 174.328 -162.926 -43.5634 -166.68 39.1123 4.36706 22.253 0.942298 10.6723 174.379 -5.69754 -32.371 172.605 -21.7176 -0.997553 -1.04986 25.9124 -20.6571 -172.478 154.666 -5.79626 174.019 -60.9299 -1.23848 -2.12852 15.7256 -2.44635 177.675 
8.72929 12.5652 -31.9589 82.7919 85.6961 3.29595 5.83752 0.27701 -10.9118 -6.28092 0.279777 -0.475675 -7.19695 2.68332 -1.75959 64.6908 -1.91138 -13.9648 9.34473 -19.1515 -160.391 30.5258 2.07705 17.602 1.27608 14.2722 174.292 -161.472 -43.1865 -166.209 38.6473 4.22437 22.0075 0.928252 10.5176 174.382 -3.67149 -31.8868 172.771 -20.406 -0.970441 -1.03704 25.6472 -20.3947 -172.609 153.165 -5.15762 174.163 -62.3601 -1.27677 -2.17921 17.1241 -3.33712 177.964 
8.73299 12.5695 -31.8829 74.7715 85.5662 10.9719 5.77002 -0.325117 -10.5545 -6.52707 0.111521 -0.620336 -7.40343 3.00048 -1.32544 63.406 -2.71864 -16.7117 9.58101 -17.5949 -160.523 30.5901 2.09188 17.6374 1.27881 14.3018 174.291 -160.013 -41.8763 -165.804 37.626 3.91769 21.4661 1.00078 11.3161 174.367 -2.27161 -31.0725 173.285 -20.2044 -0.96697 -1.04007 25.6078 -20.0529 -172.764 151.806 -5.00672 173.51 -61.0502 -1.33017 -2.13084 19.263 -4.92177 178.554 
8.7306 12.5526 -31.7831 70.4584 85.1831 15.1126 5.39102 -0.255964 -10.5732 -6.5495 0.12198 -0.632316 -7.46872 3.20714 -1.06019 61.9371 -3.04223 -18.4545 9.98897 -16.5909 -160.921 30.9602 2.17517 17.8427 1.21403 13.6102 174.308 -158.381 -40.1359 -165.483 36.4267 3.57158 20.825 1.05189 11.8773 174.356 -1.55129 -31.9356 172.956 -20.694 -0.990133 -1.04196 26.6152 -20.7266 -172.012 150.715 -5.7816 172.75 -57.5156 -1.35648 -2.00557 20.7382 -6.53771 179.199 
8.73321 12.5601 -31.6672 64.413 85.3189 21.2122 5.21662 -0.383943 -10.7255 -6.91246 0.0968951 -0.814407 -7.22622 3.41765 -0.830783 60.5934 -3.01774 -19.7026 10.8142 -16.2497 -161.24 31.149 2.21835 17.9472 1.18727 13.3132 174.315 -156.8 -37.9071 -165.548 35.2152 3.23597 20.1724 1.07876 12.1539 174.351 -0.242331 -31.6926 172.98 -19.7723 -0.957739 -1.03298 25.4032 -21.0801 -172.296 149.961 -7.20854 172.347 -52.1131 -1.32052 -1.82701 21.1344 -7.45611 179.554 
